<?xml version="1.0" encoding="utf-8"?>
<!-- Generator: Adobe Illustrator 22.1.0, SVG Export Plug-In . SVG Version: 6.00 Build 0)  -->
<svg version="1.1" id="Layer_1" xmlns="http://www.w3.org/2000/svg" xmlns:xlink="http://www.w3.org/1999/xlink" x="0px" y="0px"
	 viewBox="0 0 512 512" style="enable-background:new 0 0 512 512;" xml:space="preserve">
<g>
	<path d="M424.8,31H87.2C64,31,45.1,50,45.1,73.2v365.6c0,23.2,19,42.2,42.2,42.2h337.5c23.2,0,42.2-19,42.2-42.2V73.2
		C466.9,50,448,31,424.8,31z M410.7,424.8H101.3V87.2h309.4V424.8z M157.6,284.1h196.9v28.1H157.6V284.1z M157.6,340.4h196.9v28.1
		H157.6V340.4z M185.7,157.6c0-23.3,18.9-42.2,42.2-42.2s42.2,18.9,42.2,42.2s-18.9,42.2-42.2,42.2S185.7,180.9,185.7,157.6z
		 M256,199.8h-56.2c-23.2,0-42.2,12.7-42.2,28.1V256h140.6v-28.1C298.2,212.4,279.2,199.8,256,199.8z"/>
</g>
</svg>
